<?xml version="1.0" encoding="UTF-8"?>
<svg version="1.1" xmlns="http://www.w3.org/2000/svg" width="128" height="128">
<path d="M0 0 C0.84546387 -0.02682861 1.69092773 -0.05365723 2.56201172 -0.08129883 C6.97236064 -0.05418421 8.70934242 0.13039414 12.265625 2.97265625 C15.17095474 6.76445471 15.71087386 8.76941186 15.25 13.5625 C13.37544657 17.46157114 12.28237766 19.18649443 8.171875 20.68359375 C3.84935205 21.79106809 -0.50159922 22.04532278 -4.9375 22.375 C-15.09033955 23.28763684 -24.00070263 25.5776143 -31.75 32.5625 C-33.60798276 35.5586769 -33.60798276 35.5586769 -35.0625 38.8125 C-35.57425781 39.89015625 -36.08601563 40.9678125 -36.61328125 42.078125 C-36.98839844 42.89796875 -37.36351563 43.7178125 -37.75 44.5625 C-36.88342522 44.54584541 -36.88342522 44.54584541 -35.99934387 44.52885437 C-29.98108394 44.41815189 -23.96311364 44.34278795 -17.9440918 44.2878418 C-15.69852956 44.26271277 -13.453049 44.22860385 -11.20776367 44.18530273 C-7.97814782 44.12458224 -4.74961416 44.09627369 -1.51953125 44.07421875 C-0.51727005 44.04841232 0.48499115 44.0226059 1.5176239 43.99601746 C6.22470371 43.99412754 8.49464859 44.00018086 12.3605957 46.87817383 C14.74813703 50.27021633 15.25 52.41990384 15.25 56.5625 C14.02691506 60.303701 13.05335541 62.03481192 9.75341797 64.20239258 C5.16450353 65.98391469 1.13906137 66.03992825 -3.7421875 66.07421875 C-4.68812775 66.09216995 -5.63406799 66.11012115 -6.6086731 66.12861633 C-9.61407079 66.18256637 -12.61931104 66.21656604 -15.625 66.25 C-17.66929267 66.28318657 -19.7135646 66.31767747 -21.7578125 66.35351562 C-26.75509448 66.43828415 -31.75233099 66.50516839 -36.75 66.5625 C-35.99891975 68.16326812 -35.23621563 69.75858521 -34.46875 71.3515625 C-34.04529297 72.24053223 -33.62183594 73.12950195 -33.18554688 74.04541016 C-29.16801726 81.08975204 -22.08943577 83.6331943 -14.609375 85.7578125 C-9.17634693 86.89060985 -3.72812145 87.45252798 1.80200195 87.87988281 C2.58019287 87.94272461 3.35838379 88.00556641 4.16015625 88.0703125 C4.85246338 88.11816895 5.54477051 88.16602539 6.25805664 88.21533203 C8.58958154 88.62168433 10.23307812 89.32780134 12.25 90.5625 C14.54147823 93.96020909 15.25 96.00916853 15.25 100.125 C14.06383817 104.20243129 12.48715865 105.87802698 9.25 108.5625 C0.3979947 112.98850265 -16.35053314 108.05512749 -25.48046875 105.53125 C-37.16726151 101.39828625 -47.27717441 94.28220211 -53.75 83.5625 C-56.34541942 77.71331087 -58.75 72.03766696 -58.75 65.5625 C-60.23995483 65.58606567 -60.23995483 65.58606567 -61.76000977 65.61010742 C-65.47053818 65.66470199 -69.18103158 65.69895656 -72.8918457 65.72729492 C-74.49314356 65.74231466 -76.09440075 65.76273663 -77.69555664 65.78881836 C-80.00677571 65.82550438 -82.31744756 65.84229435 -84.62890625 65.85546875 C-85.33648575 65.87095261 -86.04406525 65.88643646 -86.77308655 65.90238953 C-91.90763496 65.90410004 -95.2962459 64.94720646 -99.75 62.5625 C-102.4290573 58.54391405 -102.44610694 55.28608279 -101.75 50.5625 C-99.95606332 47.69220131 -98.76736724 46.07118362 -95.75 44.5625 C-92.97839374 44.47566555 -90.23225235 44.4469421 -87.4609375 44.46484375 C-86.23330185 44.46696617 -86.23330185 44.46696617 -84.98086548 44.46913147 C-82.36220675 44.4747371 -79.74363296 44.48729052 -77.125 44.5 C-75.35156373 44.50501428 -73.57812613 44.50957731 -71.8046875 44.51367188 C-67.45309218 44.52470836 -63.1015605 44.54197675 -58.75 44.5625 C-58.6887796 43.94725464 -58.6275592 43.33200928 -58.56448364 42.69812012 C-58.43805984 41.48533386 -58.43805984 41.48533386 -58.30908203 40.24804688 C-58.22723663 39.44717651 -58.14539124 38.64630615 -58.06106567 37.82116699 C-56.69707537 27.91714946 -49.61071497 18.39228525 -41.9375 12.3125 C-29.20221498 3.54791221 -15.29787832 0.27582665 0 0 Z " fill="#F4E31B" transform="translate(107.75,9.4375)"/>
<path d="M0 0 C0.84546387 -0.02682861 1.69092773 -0.05365723 2.56201172 -0.08129883 C6.97236064 -0.05418421 8.70934242 0.13039414 12.265625 2.97265625 C15.17095474 6.76445471 15.71087386 8.76941186 15.25 13.5625 C13.37544657 17.46157114 12.28237766 19.18649443 8.171875 20.68359375 C3.84935205 21.79106809 -0.50159922 22.04532278 -4.9375 22.375 C-15.09033955 23.28763684 -24.00070263 25.5776143 -31.75 32.5625 C-33.60798276 35.5586769 -33.60798276 35.5586769 -35.0625 38.8125 C-35.57425781 39.89015625 -36.08601563 40.9678125 -36.61328125 42.078125 C-36.98839844 42.89796875 -37.36351563 43.7178125 -37.75 44.5625 C-36.88342522 44.54584541 -36.88342522 44.54584541 -35.99934387 44.52885437 C-29.98108394 44.41815189 -23.96311364 44.34278795 -17.9440918 44.2878418 C-15.69852956 44.26271277 -13.453049 44.22860385 -11.20776367 44.18530273 C-7.97814782 44.12458224 -4.74961416 44.09627369 -1.51953125 44.07421875 C-0.51727005 44.04841232 0.48499115 44.0226059 1.5176239 43.99601746 C6.22470371 43.99412754 8.49464859 44.00018086 12.3605957 46.87817383 C14.74813703 50.27021633 15.25 52.41990384 15.25 56.5625 C14.02691506 60.303701 13.05335541 62.03481192 9.75341797 64.20239258 C5.16450353 65.98391469 1.13906137 66.03992825 -3.7421875 66.07421875 C-4.68812775 66.09216995 -5.63406799 66.11012115 -6.6086731 66.12861633 C-9.61407079 66.18256637 -12.61931104 66.21656604 -15.625 66.25 C-17.66929267 66.28318657 -19.7135646 66.31767747 -21.7578125 66.35351562 C-26.75509448 66.43828415 -31.75233099 66.50516839 -36.75 66.5625 C-35.99891975 68.16326812 -35.23621563 69.75858521 -34.46875 71.3515625 C-34.04529297 72.24053223 -33.62183594 73.12950195 -33.18554688 74.04541016 C-29.16801726 81.08975204 -22.08943577 83.6331943 -14.609375 85.7578125 C-9.17634693 86.89060985 -3.72812145 87.45252798 1.80200195 87.87988281 C2.58019287 87.94272461 3.35838379 88.00556641 4.16015625 88.0703125 C4.85246338 88.11816895 5.54477051 88.16602539 6.25805664 88.21533203 C8.58958154 88.62168433 10.23307812 89.32780134 12.25 90.5625 C14.54147823 93.96020909 15.25 96.00916853 15.25 100.125 C14.06383817 104.20243129 12.48715865 105.87802698 9.25 108.5625 C0.3979947 112.98850265 -16.35053314 108.05512749 -25.48046875 105.53125 C-37.16726151 101.39828625 -47.27717441 94.28220211 -53.75 83.5625 C-56.34541942 77.71331087 -58.75 72.03766696 -58.75 65.5625 C-60.23995483 65.58606567 -60.23995483 65.58606567 -61.76000977 65.61010742 C-65.47053818 65.66470199 -69.18103158 65.69895656 -72.8918457 65.72729492 C-74.49314356 65.74231466 -76.09440075 65.76273663 -77.69555664 65.78881836 C-80.00677571 65.82550438 -82.31744756 65.84229435 -84.62890625 65.85546875 C-85.33648575 65.87095261 -86.04406525 65.88643646 -86.77308655 65.90238953 C-91.90763496 65.90410004 -95.2962459 64.94720646 -99.75 62.5625 C-102.4290573 58.54391405 -102.44610694 55.28608279 -101.75 50.5625 C-99.95606332 47.69220131 -98.76736724 46.07118362 -95.75 44.5625 C-92.97839374 44.47566555 -90.23225235 44.4469421 -87.4609375 44.46484375 C-86.23330185 44.46696617 -86.23330185 44.46696617 -84.98086548 44.46913147 C-82.36220675 44.4747371 -79.74363296 44.48729052 -77.125 44.5 C-75.35156373 44.50501428 -73.57812613 44.50957731 -71.8046875 44.51367188 C-67.45309218 44.52470836 -63.1015605 44.54197675 -58.75 44.5625 C-58.6887796 43.94725464 -58.6275592 43.33200928 -58.56448364 42.69812012 C-58.43805984 41.48533386 -58.43805984 41.48533386 -58.30908203 40.24804688 C-58.22723663 39.44717651 -58.14539124 38.64630615 -58.06106567 37.82116699 C-56.69707537 27.91714946 -49.61071497 18.39228525 -41.9375 12.3125 C-29.20221498 3.54791221 -15.29787832 0.27582665 0 0 Z M-8.29296875 2.625 C-22.57489172 3.39053021 -37.39579614 10.05324565 -47.1875 20.48046875 C-52.83211098 28.00191288 -56.91005166 37.10344714 -56.75 46.5625 C-58.4374231 46.52322388 -58.4374231 46.52322388 -60.15893555 46.4831543 C-64.34265157 46.39248255 -68.52628121 46.33518963 -72.71069336 46.2878418 C-74.51976132 46.2627361 -76.32872822 46.22864405 -78.13745117 46.18530273 C-80.74162751 46.12447421 -83.34446031 46.09625191 -85.94921875 46.07421875 C-86.75461594 46.04841232 -87.56001312 46.0226059 -88.38981628 45.99601746 C-92.66483397 45.99389429 -94.26766346 46.18716684 -97.76098633 48.90551758 C-99.94325393 51.4298246 -99.94325393 51.4298246 -100.375 54.5625 C-99.51605163 58.68545217 -98.06253522 59.98483029 -94.75 62.5625 C-91.80194429 63.23088719 -88.95931302 63.14723028 -85.94921875 63.05078125 C-85.11284378 63.04370651 -84.27646881 63.03663177 -83.41474915 63.02934265 C-80.75473948 63.00144985 -78.09686861 62.93872481 -75.4375 62.875 C-73.62958779 62.84991034 -71.82164243 62.82709833 -70.01367188 62.80664062 C-65.59162927 62.75164042 -61.17117669 62.66540643 -56.75 62.5625 C-56.65436264 63.4891748 -56.65436264 63.4891748 -56.55679321 64.43457031 C-56.4274086 65.65031738 -56.4274086 65.65031738 -56.29541016 66.890625 C-56.21102692 67.6940332 -56.12664368 68.49744141 -56.03970337 69.32519531 C-54.64530489 80.09377653 -47.22063298 89.18792329 -39.09765625 95.93359375 C-27.54882104 103.94667908 -14.49786708 106.7618451 -0.6875 107 C0.13443848 107.02239746 0.95637695 107.04479492 1.80322266 107.06787109 C5.61301788 107.05287501 7.61627612 107.01599947 10.77734375 104.75390625 C12.94118239 101.53397661 12.79105225 99.34986576 12.25 95.5625 C10.04191861 92.7655969 8.05370615 90.81080114 4.4375 90.31298828 C3.715625 90.25353027 2.99375 90.19407227 2.25 90.1328125 C1.04984253 90.0258606 1.04984253 90.0258606 -0.17456055 89.91674805 C-1.44940308 89.80327026 -1.44940308 89.80327026 -2.75 89.6875 C-12.57525701 88.71661755 -20.79075875 87.34444073 -29.05859375 81.6484375 C-30.8756968 80.38369112 -30.8756968 80.38369112 -33.75 79.5625 C-35.81194332 76.25709468 -36.99567128 72.44231243 -38.375 68.8125 C-38.82101563 67.64203125 -39.26703125 66.4715625 -39.7265625 65.265625 C-40.06429687 64.37359375 -40.40203125 63.4815625 -40.75 62.5625 C-39.8646331 62.57915459 -39.8646331 62.57915459 -38.96138 62.59614563 C-32.81335597 62.7068366 -26.66561533 62.78220745 -20.5168457 62.8371582 C-18.22278342 62.86228928 -15.9288011 62.89639969 -13.63500977 62.93969727 C-10.33589951 63.00040832 -7.03784854 63.02872437 -3.73828125 63.05078125 C-2.20207878 63.08949089 -2.20207878 63.08949089 -0.63484192 63.12898254 C5.31004818 63.13459334 5.31004818 63.13459334 10.40551758 60.22338867 C12.65394772 56.97975663 12.90864001 55.43201007 12.25 51.5625 C10.47015595 48.4265843 9.72691793 47.72147264 6.25 46.5625 C4.70029552 46.47562201 3.14710293 46.4448134 1.5949707 46.44897461 C0.65422195 46.44905014 -0.28652679 46.44912567 -1.25578308 46.44920349 C-2.77465874 46.45694542 -2.77465874 46.45694542 -4.32421875 46.46484375 C-5.88267265 46.46696617 -5.88267265 46.46696617 -7.47261047 46.46913147 C-10.79426948 46.47473344 -14.11586133 46.48728628 -17.4375 46.5 C-19.68815007 46.50501475 -21.93880119 46.5095777 -24.18945312 46.51367188 C-29.70965837 46.52470351 -35.22982439 46.54144357 -40.75 46.5625 C-40.15397364 44.81621083 -39.547808 43.07338056 -38.9375 41.33203125 C-38.60105469 40.36112549 -38.26460937 39.39021973 -37.91796875 38.38989258 C-34.55672018 30.25305735 -28.51661099 26.30201167 -20.7109375 22.74609375 C-13.35060296 19.80390198 -6.3177812 19.23701998 1.57910156 19.25463867 C5.4306358 19.14786067 7.13454663 18.65345398 10.1953125 16.2421875 C12.51955266 13.63844833 12.51955266 13.63844833 12.875 10 C12.56600442 6.4741679 12.56600442 6.4741679 10.09765625 4.3671875 C4.53779569 0.84365447 -1.95359836 2.46919366 -8.29296875 2.625 Z " fill="#080801" transform="translate(107.75,9.4375)"/>
</svg>
